<?xml version="1.0" encoding="UTF-8" standalone="no"?>
<!-- Created with Inkscape (http://www.inkscape.org/) -->

<svg
   width="338.85913mm"
   height="211.80505mm"
   viewBox="0 0 338.85913 211.80505"
   version="1.1"
   id="svg455"
   sodipodi:docname="title-bg.svg"
   xml:space="preserve"
   inkscape:version="1.2 (dc2aeda, 2022-05-15)"
   xmlns:inkscape="http://www.inkscape.org/namespaces/inkscape"
   xmlns:sodipodi="http://sodipodi.sourceforge.net/DTD/sodipodi-0.dtd"
   xmlns:xlink="http://www.w3.org/1999/xlink"
   xmlns="http://www.w3.org/2000/svg"
   xmlns:svg="http://www.w3.org/2000/svg"><sodipodi:namedview
     id="namedview52"
     pagecolor="#505050"
     bordercolor="#eeeeee"
     borderopacity="1"
     inkscape:showpageshadow="0"
     inkscape:pageopacity="0"
     inkscape:pagecheckerboard="0"
     inkscape:deskcolor="#505050"
     inkscape:document-units="mm"
     showgrid="false"
     inkscape:zoom="0.72101409"
     inkscape:cx="642.84458"
     inkscape:cy="390.42233"
     inkscape:window-width="1920"
     inkscape:window-height="1027"
     inkscape:window-x="0"
     inkscape:window-y="25"
     inkscape:window-maximized="0"
     inkscape:current-layer="layer2" /><defs
     id="defs452"><linearGradient
       id="linearGradient987"><stop
         style="stop-color:#fff6dd;stop-opacity:1;"
         offset="0"
         id="stop983" /><stop
         style="stop-color:#fff6dd;stop-opacity:0;"
         offset="1"
         id="stop985" /></linearGradient><linearGradient
       id="skyGrad"
       x1="0"
       y1="0"
       x2="0"
       y2="1"><stop
         style="stop-color:#eda06f;stop-opacity:1"
         offset="0"
         id="stop5" /><stop
         style="stop-color:#f8c98f;stop-opacity:1"
         offset="0.55"
         id="stop7" /><stop
         style="stop-color:#ffeec6;stop-opacity:1"
         offset="1"
         id="stop9" /></linearGradient><radialGradient
       xlink:href="#linearGradient987"
       id="radialGradient989"
       cx="65.797333"
       cy="143.25151"
       fx="65.797333"
       fy="143.25151"
       r="61.537594"
       gradientTransform="matrix(1,0,0,0.98187917,0,2.5958363)"
       gradientUnits="userSpaceOnUse" /></defs><g
     id="layer1"
     transform="translate(115.32417,-58.131313)"><rect
       style="clip-rule:evenodd;display:inline;fill:url(#skyGrad);fill-opacity:1;fill-rule:nonzero;stroke:none;stroke-width:0.681037;stroke-linecap:round;stroke-linejoin:round;stroke-opacity:0.27027"
       id="rect14672"
       width="338.66666"
       height="211.66666"
       x="-115.32283"
       y="58.131313"
       rx="2.2755284" /><path
       style="clip-rule:evenodd;fill:#fff6dd;fill-opacity:1;fill-rule:nonzero;stroke:none;stroke-width:0.681037;stroke-linecap:round;stroke-linejoin:round;stroke-opacity:0.27027"
       d="m 109.68293,102.0159 76.35465,-2.6e-4 c 0,0 -4.44725,-1.61402 -6.70618,-2.313011 -2.5726,-0.796046 -6.46292,-2.162669 -7.79034,-2.139667 -1.49833,0.02596 -4.22275,1.542521 -4.22275,1.542521 0,0 -2.26568,-4.557408 -4.4405,-5.380786 -1.69582,-0.642025 -3.63664,0.327845 -5.37292,0.850617 -1.39041,0.418629 -3.96343,1.807607 -3.96343,1.807607 0,0 0.40317,-5.02099 -1.10596,-6.7144 -1.89174,-2.122723 -5.64381,-3.583464 -8.20208,-2.342552 -1.57915,0.765976 -1.99867,4.871243 -1.99867,4.871243 0,0 -3.15467,-1.124259 -4.74821,-1.63781 -1.77105,-0.570759 -3.54448,-2.065586 -5.34696,-1.603587 -2.06101,0.528265 -4.47808,4.548439 -4.47808,4.548439 0,0 -3.35894,-2.435384 -5.12392,-1.957917 -1.35829,0.367451 -1.61931,2.326881 -2.64583,3.289298 -3.03505,2.845512 -10.20882,7.180265 -10.20882,7.180265 z"
       id="path18173" /><ellipse
       style="fill:url(#radialGradient989);stroke-width:1.13459;stroke-opacity:0.27027;fill-opacity:1"
       id="path401"
       cx="65.797333"
       cy="143.25151"
       rx="61.537594"
       ry="60.422482" /><ellipse
       style="fill:#fff6dd;stroke-width:0.681037;stroke-opacity:0.27027"
       id="ellipse403"
       cx="65.797333"
       cy="143.25151"
       rx="36.93795"
       ry="36.268604" /></g><g
     id="layer6"><path
       style="clip-rule:evenodd;display:inline;fill:#f0b183;fill-opacity:1;fill-rule:nonzero;stroke:none;stroke-width:0.681037;stroke-linecap:round;stroke-linejoin:round;stroke-opacity:0.27027"
       d="m -114.63247,127.32594 c 0,0 27.824241,7.2913 41.200854,12.48807 8.419994,3.27114 15.428862,11.0661 24.439033,11.70914 10.92323,0.77956 20.604284,-11.98667 31.3436,-9.84383 10.5954005,2.11413 14.6756935,17.14054 24.8282348,20.8362 7.8564182,2.85985 16.9361802,1.88278 25.0822352,2.7e-4 7.005518,-1.61894 12.198329,-9.18945 19.383219,-9.46441 10.613604,-0.40617 19.062998,12.93835 29.617878,11.75173 10.195655,-1.14623 15.355366,-15.21425 25.375126,-17.42096 5.24991,-1.15621 10.82006,4.45688 15.89987,2.69796 7.54153,-2.61131 9.10769,-13.8504 16.07397,-17.74455 5.95961,-3.33142 13.33257,-3.16797 20.13426,-3.76158 10.6449,-0.92902 21.37659,0.74462 32.05427,0.33946 7.85006,-0.29786 15.66908,-1.18885 23.47913,-2.03464 3.02926,-0.32806 9.06462,-1.17872 9.06462,-1.17872 v 144.0979 h -338.66666 z"
       id="path14668"
       transform="translate(115.32417,-58.131313)" /></g><g
     id="layer5"
     style="display:inline"><path
       style="clip-rule:evenodd;display:inline;fill:#dd8f6d;fill-opacity:1;fill-rule:nonzero;stroke:none;stroke-width:0.681037;stroke-linecap:round;stroke-linejoin:round;stroke-opacity:0.27027"
       d="m -115.2805,151.38013 c 0,0 26.169899,-0.90703 38.76887,0.11603 12.598971,1.02305 25.898149,4.16105 36.605632,5.8719 10.707484,1.71084 18.757948,2.87543 27.638375,4.39869 8.8804273,1.52327 17.5522703,3.03946 25.64421,4.71752 8.09194,1.67807 15.336173,3.79535 22.906831,5.29167 7.570658,1.49633 15.612393,3.0433 22.489583,3.70417 6.87719,0.66086 12.774877,-0.0681 18.653125,0.52916 5.878248,0.59726 10.157772,2.66428 16.536458,2.90936 6.378686,0.24508 14.306396,-0.84274 21.408066,-2.09066 7.10168,-1.24791 14.46984,-2.56804 21.07384,-5.39321 6.604,-2.82517 10.66146,-7.2641 18.10768,-11.30049 7.44622,-4.03639 17.48046,-9.82478 26.72291,-12.43541 9.24245,-2.61063 20.96254,-2.05573 27.96382,-3.23109 7.00127,-1.17537 14.10493,-3.11891 14.10493,-3.11891 v 128.44912 h -338.66666 z"
       id="path14664"
       transform="translate(115.32417,-58.131313)" /><path
       style="clip-rule:evenodd;display:inline;fill:#dd8f6d;fill-opacity:1;fill-rule:nonzero;stroke:none;stroke-width:2.574;stroke-linecap:round;stroke-linejoin:round;stroke-opacity:0.27027"
       id="path15313"
       d="m 424.62313,160.74629 74.21492,-128.544021 74.21493,-128.54402 74.21493,128.544016 74.21492,128.544035 -148.42985,0 z"
       transform="matrix(0.04732428,0,0,0.09795983,146.97785,102.07229)" /><path
       style="clip-rule:evenodd;display:inline;fill:#dd8f6d;fill-opacity:1;fill-rule:nonzero;stroke:none;stroke-width:2.574;stroke-linecap:round;stroke-linejoin:round;stroke-opacity:0.27027"
       id="path15313-8"
       d="m 424.62313,160.74629 74.21492,-128.544021 74.21493,-128.54402 74.21493,128.544016 74.21492,128.544035 -148.42985,0 z"
       transform="matrix(0.03532329,0,0,0.07311813,175.67214,108.24735)" /><path
       style="clip-rule:evenodd;display:inline;fill:#dd8f6d;fill-opacity:1;fill-rule:nonzero;stroke:none;stroke-width:2.574;stroke-linecap:round;stroke-linejoin:round;stroke-opacity:0.27027"
       id="path15313-8-4"
       d="m 424.62313,160.74629 74.21492,-128.544021 74.21493,-128.54402 74.21493,128.544016 74.21492,128.544035 -148.42985,0 z"
       transform="matrix(0.03532329,0,0,0.07311813,184.06619,109.70256)" /><path
       style="clip-rule:evenodd;display:inline;fill:#dd8f6d;fill-opacity:1;fill-rule:nonzero;stroke:none;stroke-width:2.574;stroke-linecap:round;stroke-linejoin:round;stroke-opacity:0.27027"
       id="path15313-8-9"
       d="m 424.62313,160.74629 74.21492,-128.544021 74.21493,-128.54402 74.21493,128.544016 74.21492,128.544035 -148.42985,0 z"
       transform="matrix(0.03532329,0,0,0.07311813,188.96927,111.08853)" /><path
       style="clip-rule:evenodd;display:inline;fill:#dd8f6d;fill-opacity:1;fill-rule:nonzero;stroke:none;stroke-width:2.574;stroke-linecap:round;stroke-linejoin:round;stroke-opacity:0.27027"
       id="path15313-8-7"
       d="m 424.62313,160.74629 74.21492,-128.544021 74.21493,-128.54402 74.21493,128.544016 74.21492,128.544035 -148.42985,0 z"
       transform="matrix(0.03532329,0,0,0.07311813,226.00265,106.79214)" /><path
       style="clip-rule:evenodd;display:inline;fill:#dd8f6d;fill-opacity:1;fill-rule:nonzero;stroke:none;stroke-width:2.574;stroke-linecap:round;stroke-linejoin:round;stroke-opacity:0.27027"
       id="path15313-8-3"
       d="m 424.62313,160.74629 74.21492,-128.544021 74.21493,-128.54402 74.21493,128.544016 74.21492,128.544035 -148.42985,0 z"
       transform="matrix(0.02689097,0,0,0.0556635,240.59843,103.2532)" /><path
       style="clip-rule:evenodd;display:inline;fill:#dd8f6d;fill-opacity:1;fill-rule:nonzero;stroke:none;stroke-width:2.574;stroke-linecap:round;stroke-linejoin:round;stroke-opacity:0.27027"
       id="path15313-8-1"
       d="m 424.62313,160.74629 74.21492,-128.544021 74.21493,-128.54402 74.21493,128.544016 74.21492,128.544035 -148.42985,0 z"
       transform="matrix(0.03532329,0,0,0.07311813,84.365454,95.478108)" /></g><g
     id="layer4"
     style="display:inline"><path
       style="clip-rule:evenodd;display:inline;fill:#c2707a;fill-opacity:1;fill-rule:nonzero;stroke:none;stroke-width:0.681037;stroke-linecap:round;stroke-linejoin:round;stroke-opacity:0.27027"
       d="m -115.2805,179.50177 c 0,0 21.807539,-4.66305 32.791668,-3.928 7.262201,0.48598 13.920649,4.54483 21.141001,5.46259 8.661562,1.10094 17.482005,-0.58329 26.19375,0 8.257463,0.55287 16.599937,1.2145 24.60625,3.3098 10.74176273,2.81119 20.4416707,8.73243 30.956249,12.30061 5.208244,1.76745 10.401493,3.95905 15.875,4.49792 8.805053,0.86685 17.796087,-0.31503 26.458333,-2.11667 6.389648,-1.32896 12.367773,-4.17431 18.520833,-6.35 7.042859,-2.49031 13.786056,-5.95523 21.056066,-7.67291 8.25808,-1.95113 16.97283,-1.22599 25.28941,-2.91042 11.06446,-2.24098 22.07038,-5.20532 32.50036,-9.525 7.88008,-3.26361 14.60195,-8.93819 22.45254,-12.27217 8.6021,-3.65313 17.46522,-7.39085 26.75996,-8.36533 4.66947,-0.48955 14.02291,1.32292 14.02291,1.32292 v 116.54287 h -338.66666 z"
       id="path6655"
       transform="translate(115.32417,-58.131313)" /><path
       style="clip-rule:evenodd;display:inline;fill:#c2707a;fill-opacity:1;fill-rule:nonzero;stroke:none;stroke-width:0.178432;stroke-linecap:round;stroke-linejoin:round;stroke-opacity:0.27027"
       id="path15313-8-0"
       d="m 96.558557,126.97786 3.575803,-12.82029 3.5758,-12.82029 3.5758,12.82029 3.5758,12.82029 h -7.1516 z" /><path
       style="clip-rule:evenodd;display:inline;fill:#c2707a;fill-opacity:1;fill-rule:nonzero;stroke:none;stroke-width:0.178432;stroke-linecap:round;stroke-linejoin:round;stroke-opacity:0.27027"
       id="path15313-8-0-7"
       d="m 106.87731,131.60224 3.5758,-12.82029 3.5758,-12.82029 3.5758,12.82029 3.5758,12.82029 h -7.1516 z" /><path
       style="clip-rule:evenodd;display:inline;fill:#c2707a;fill-opacity:1;fill-rule:nonzero;stroke:none;stroke-width:2.574;stroke-linecap:round;stroke-linejoin:round;stroke-opacity:0.27027"
       id="path15313-8-0-1"
       d="m 424.62313,160.74629 74.21492,-128.544021 74.21493,-128.54402 74.21493,128.544016 74.21492,128.544035 -148.42985,0 z"
       transform="matrix(0.04818168,0,0,0.09973461,96.80707,120.22091)" /><path
       style="clip-rule:evenodd;display:inline;fill:#c2707a;fill-opacity:1;fill-rule:nonzero;stroke:none;stroke-width:0.178432;stroke-linecap:round;stroke-linejoin:round;stroke-opacity:0.27027"
       id="path15313-8-0-5"
       d="m 144.18356,143.92743 3.5758,-12.82029 3.5758,-12.82029 3.5758,12.82029 3.57579,12.82029 h -7.15159 z" /><path
       style="clip-rule:evenodd;display:inline;fill:#c2707a;fill-opacity:1;fill-rule:nonzero;stroke:none;stroke-width:2.574;stroke-linecap:round;stroke-linejoin:round;stroke-opacity:0.27027"
       id="path15313-8-0-9"
       d="m 424.62313,160.74629 74.21492,-128.544021 74.21493,-128.54402 74.21493,128.544016 74.21492,128.544035 -148.42985,0 z"
       transform="matrix(0.04818168,0,0,0.09973461,197.97752,110.09177)" /><path
       style="clip-rule:evenodd;display:inline;fill:#c2707a;fill-opacity:1;fill-rule:nonzero;stroke:none;stroke-width:2.574;stroke-linecap:round;stroke-linejoin:round;stroke-opacity:0.27027"
       id="path15313-8-0-53"
       d="m 424.62313,160.74629 74.21492,-128.544021 74.21493,-128.54402 74.21493,128.544016 74.21492,128.544035 -148.42985,0 z"
       transform="matrix(0.03486723,0,0,0.0721741,194.71398,117.67046)" /><path
       style="clip-rule:evenodd;display:inline;fill:#c2707a;fill-opacity:1;fill-rule:nonzero;stroke:none;stroke-width:2.574;stroke-linecap:round;stroke-linejoin:round;stroke-opacity:0.27027"
       id="path15313-8-0-53-2"
       d="m 424.62313,160.74629 74.21492,-128.544021 74.21493,-128.54402 74.21493,128.544016 74.21492,128.544035 -148.42985,0 z"
       transform="matrix(0.03486723,0,0,0.0721741,217.88896,114.24768)" /></g><g
     id="layer3"
     style="display:inline"><path
       style="clip-rule:evenodd;display:inline;fill:#905672;fill-opacity:1;fill-rule:nonzero;stroke:none;stroke-width:0.681037;stroke-linecap:round;stroke-linejoin:round;stroke-opacity:0.27027"
       d="m -115.32283,181.56552 c 0,0 21.554941,15.31748 33.771416,19.99986 15.334414,5.87743 32.137834,6.80672 48.31027,9.65994 10.4814,1.84917 20.921234,5.05567 31.5621459,4.83155 11.1409584,-0.23465 21.8675691,-4.30274 32.8030411,-6.44551 7.672128,-1.50333 15.261381,-3.52591 23.01875,-4.49792 11.65734,-1.46067 23.509734,-3.25257 35.189583,-1.98437 4.812479,0.52253 9.149606,4.11914 13.985874,3.91054 3.66547,-0.1581 6.75928,-2.92487 10.30552,-3.86557 7.78749,-2.06575 16.02896,-1.9619 23.86277,-3.84439 2.403,-0.57745 4.85731,-1.14772 7.05644,-2.27542 4.98679,-2.55719 8.51461,-7.47836 13.52814,-9.98273 9.59041,-4.79061 20.62121,-5.88968 30.81073,-9.22126 8.04069,-2.62899 15.55761,-7.1859 23.91569,-8.49233 3.38775,-0.52953 10.28171,0.31988 10.28171,0.31988 l 0.26458,100.12019 h -338.66666 z"
       id="path4729"
       transform="translate(115.32417,-58.131313)" /><path
       style="clip-rule:evenodd;display:inline;fill:#905672;fill-opacity:1;fill-rule:nonzero;stroke:none;stroke-width:0.292442;stroke-linecap:round;stroke-linejoin:round;stroke-opacity:0.27027"
       id="path15313-8-0-53-7"
       d="m 126.33303,155.79292 5.86059,-21.01192 5.86059,-21.01192 5.86058,21.01192 5.86059,21.01192 h -11.72117 z" /><path
       style="clip-rule:evenodd;display:inline;fill:#905672;fill-opacity:1;fill-rule:nonzero;stroke:none;stroke-width:0.292442;stroke-linecap:round;stroke-linejoin:round;stroke-opacity:0.27027"
       id="path15313-8-0-53-7-9"
       d="m 54.595373,151.69974 5.860586,-21.01192 5.860588,-21.01192 5.860587,21.01192 5.860587,21.01192 H 66.316547 Z" /><path
       style="clip-rule:evenodd;display:inline;fill:#905672;fill-opacity:1;fill-rule:nonzero;stroke:none;stroke-width:0.234902;stroke-linecap:round;stroke-linejoin:round;stroke-opacity:0.27027"
       id="path15313-8-0-53-7-5"
       d="m 112.55933,159.53765 4.70746,-16.87764 4.70747,-16.87764 4.70746,16.87764 4.70747,16.87764 h -9.41493 z" /><path
       style="clip-rule:evenodd;display:inline;fill:#905672;fill-opacity:1;fill-rule:nonzero;stroke:none;stroke-width:2.574;stroke-linecap:round;stroke-linejoin:round;stroke-opacity:0.27027"
       id="path15313-8-0-53-7-5-3"
       d="m 424.62313,160.74629 74.21492,-128.544021 74.21493,-128.54402 74.21493,128.544016 74.21492,128.544035 -148.42985,0 z"
       transform="matrix(0.06343017,0,0,0.13129851,12.97506,127.08791)" /><path
       style="clip-rule:evenodd;display:inline;fill:#905672;fill-opacity:1;fill-rule:nonzero;stroke:none;stroke-width:0.422212;stroke-linecap:round;stroke-linejoin:round;stroke-opacity:0.27027"
       id="path15313-8-0-53-7-5-33"
       d="m 273.23419,125.55816 8.46118,-30.335807 8.46118,-30.335806 8.46118,30.335805 8.46118,30.335808 h -16.92236 z" /></g><g
     id="layer2"
     style="display:inline"><path
       style="clip-rule:evenodd;display:inline;fill:#3e2938;fill-rule:nonzero;stroke:none;stroke-width:0.681037;stroke-linecap:round;stroke-linejoin:round;stroke-opacity:0.27027;fill-opacity:1"
       d="m -115.29108,199.32965 v 70.60671 h 338.69312 l 0.13293,-61.9125 c 0,0 -4.79507,7.62528 -8.58901,9.67607 -7.09499,3.83517 -15.90588,2.7886 -23.93725,3.52639 -7.48779,0.68787 -15.1664,-0.62685 -22.54258,0.8333 -4.48136,0.8871 -8.67082,2.91747 -12.85563,4.74965 -4.44709,1.94702 -8.19961,5.74188 -12.97517,6.61459 -6.38776,1.16732 -12.86958,-2.09793 -19.363,-2.13757 -15.71722,-0.096 -31.21182,4.36158 -46.927509,4.60131 -12.222884,0.18646 -24.381356,-1.84651 -36.59007,-2.46374 -13.34675,-0.67478 -26.727649,-2.13751 -40.06849912,-1.35467 -9.19420718,0.53951 -9.76202388,-0.0972 -18.96533288,0.25436 -7.197365,0.27496 -14.224429,-4.58763 -21.43125,-6.55442 -6.58858,-1.79807 -14.78362,-1.81616 -19.920479,-4.79127 -6.025642,-3.48987 -13.988909,-1.39181 -20.56077,-3.69359 -8.044726,-2.81764 -14.925458,-8.24136 -22.48958,-12.17083 -3.83679,-1.99316 -11.60992,-5.78379 -11.60992,-5.78379 z"
       id="path2560"
       transform="translate(115.32417,-58.131313)" /><path
       id="path2658"
       style="clip-rule:evenodd;display:inline;fill:#3e2938;fill-rule:nonzero;stroke:none;stroke-width:1.02487;stroke-linecap:round;stroke-linejoin:round;stroke-opacity:0.27027;fill-opacity:1"
       d="m -76.734759,79.921523 c -1.393491,-0.110937 -2.551269,1.344861 -3.947392,1.41534 -1.925508,0.09719 -3.692019,-1.546363 -5.613914,-1.393563 -1.511572,0.120177 -2.705359,1.453569 -4.186134,1.780057 -1.152398,0.254086 -2.40787,-0.225785 -3.538344,0.112762 -1.300738,0.389532 -2.204119,1.645969 -3.473022,2.129229 -0.98011,0.373272 -2.117095,0.18204 -3.096625,0.556807 -0.91201,0.348924 -1.57184,1.214739 -2.49319,1.538204 -1.16568,0.409258 -2.51679,0.0317 -3.67832,0.452598 -2.30167,0.83407 -4.9268,1.873496 -6.17149,3.981603 -1.14715,1.942895 0.85977,4.926597 -0.46581,6.752404 -0.40616,0.559429 -1.92316,0.776884 -1.92316,0.776884 v 29.694882 c 0,0 3.45035,-0.67797 4.10137,0.53735 0.54973,1.02624 -1.51818,1.96999 -1.54131,3.13397 -0.0208,1.04471 1.34165,1.82398 1.26991,2.86644 -0.16648,2.41883 -3.93127,3.76074 -3.82997,6.18316 0.13161,3.14681 2.78258,6.24034 5.62869,7.58917 3.15942,1.49731 7.3551,-2.07095 10.477393,-0.4977 3.44621,1.73646 5.210253,5.96229 6.439009,9.62041 0.998482,2.97256 1.47143,6.39497 0.548248,9.39178 -1.107234,3.59428 -3.225009,8.06119 -6.881491,8.94151 -2.270989,0.54675 -4.437499,-4.36492 -6.333259,-3.00021 -2.27049,1.63451 0.4263,5.59523 1.00007,8.33339 1.56825,7.48404 4.637678,28.18206 4.637678,28.18206 l 16.227455,8.37412 8.480767,3.18394 c 0,0 -0.07164,-6.8466 -0.203935,-8.2263 -0.367585,-3.83358 -0.708334,-7.79042 -2.195328,-11.34292 -1.810786,-4.32605 -6.092285,-7.2984 -7.963219,-11.59877 -1.756472,-4.03728 -3.316335,-8.51264 -2.870337,-12.8928 0.433574,-4.25814 2.437357,-8.49573 5.259303,-11.71386 2.262288,-2.57992 5.526938,-4.25636 8.759542,-5.40706 3.058466,-1.08873 8.429465,-4.27804 9.656179,-1.27226 0.392057,0.96066 -1.975808,0.96791 -2.489283,1.8695 -0.878362,1.54229 -1.313693,3.67796 -0.577022,5.29274 0.895496,1.96293 3.270463,3.01108 5.319183,3.68766 2.896345,0.9565 6.190527,1.04497 9.146035,0.29084 2.255367,-0.57547 4.570784,-1.71678 6.019852,-3.53834 0.66575,-0.83689 0.06792,-2.47411 0.961965,-3.06086 1.900616,-1.24739 4.511631,0.62942 6.783509,0.71233 2.293398,0.0837 4.643365,-0.72854 6.880723,-0.21775 2.392326,0.54618 4.09425,3.09278 6.528438,3.40304 2.410416,0.30723 5.05172,-0.33726 7.102352,-1.64087 1.315231,-0.83609 1.479277,-3.00724 2.88589,-3.67832 1.984463,-0.94678 4.51302,0.80407 6.5960935,0.10033 2.115001,-0.71454 4.1991696,-2.17962 5.262415,-4.14258 0.8595332,-1.58689 -0.6837031,-4.01336 0.4805925,-5.39228 0.574398,-0.68034 1.7597404,-0.33966 2.582604,-0.67968 0.85093822,-0.35162 1.47532426,-1.26808 2.3881889,-1.38811 1.5003537,-0.1973 2.8716886,1.09589 4.3821034,1.18903 2.5951496,0.16003 5.3764067,0.0212 7.7213637,-1.10194 1.812147,-0.86799 2.454463,-3.62929 4.403881,-4.11614 0.679294,-0.16965 1.330815,0.49075 2.028908,0.54436 2.097074,0.16103 4.440192,0.34655 6.272592,-0.6859 1.353689,-0.76272 2.796161,-2.14756 2.833787,-3.70087 0.0312,-1.28778 -1.140452,-2.44344 -2.198441,-3.17829 -1.773739,-1.232 -5.158698,0.25333 -6.279589,-1.59265 -0.35382,-0.5827 0.494231,-1.30959 0.46815,-1.9908 -0.04883,-1.27594 -0.323858,-2.68565 -1.159488,-3.6511 -1.359855,-1.57115 -3.577734,-2.28287 -5.609249,-2.71947 -2.311271,-0.49673 -4.8478862,0.95114 -7.0891314,0.19908 -0.3677091,-0.12339 -0.8510529,-0.34428 -0.908304,-0.7279 -0.1278236,-0.85647 1.345278,-1.28782 1.4643314,-2.14555 0.2639372,-1.90154 -0.6463117,-3.9487 -1.8282745,-5.4615 -1.3308812,-1.70338 -3.40063,-2.8556 -5.46849426,-3.48546 -2.63960734,-0.80401 -6.91588544,2.20343 -8.27583574,-0.19752 -0.470146,-0.83002 1.221913,-1.55453 1.4122235,-2.48929 0.2457785,-1.20716 0.1758005,-2.59431 -0.4222663,-3.67133 -1.0648354,-1.9176 -3.1169807,-3.27515 -5.1519867,-4.09359 -2.063584,-0.82993 -6.260758,1.56892 -6.643532,-0.62212 -0.187976,-1.07604 2.111966,-0.71251 2.965991,-1.39356 1.273501,-1.01558 2.636865,-2.26393 3.010312,-3.84941 0.274263,-1.164402 -0.08807,-2.498501 -0.716225,-3.51657 -0.846689,-1.372292 -2.308719,-2.384631 -3.803522,-2.989319 -1.791425,-0.724663 -3.847375,-0.815396 -5.767117,-0.594128 -1.515554,0.174685 -2.800508,1.491936 -4.326109,1.492324 -1.527864,2.97e-4 -2.813965,-1.336792 -4.333892,-1.492324 -1.546848,-0.158283 -3.190079,7.9e-5 -4.627063,0.594128 -1.107111,0.457682 -1.693124,1.870928 -2.847006,2.192996 -0.700383,0.195494 -1.441038,-0.233629 -2.168112,-0.244176 -0.979959,-0.01415 -2.407587,1.073258 -2.930218,0.244176 -0.553651,-0.87829 1.521214,-1.652126 1.571648,-2.689144 0.03949,-0.81212 -0.439571,-1.646453 -1.020287,-2.215538 -1.109602,-1.087412 -3.913335,-0.352362 -4.271676,-1.864045 -0.318548,-1.343836 2.322186,-1.843579 2.649481,-3.185292 0.357286,-1.464661 -0.01534,-3.249072 -0.966627,-4.418652 -1.119681,-1.3766 -3.085539,-2.134953 -4.859587,-2.172779 -1.694093,-0.03613 -3.030571,1.877324 -4.725051,1.874932 -1.682644,-0.0024 -3.004462,-1.852275 -4.686945,-1.874932 -1.654413,-0.02226 -3.442005,0.595884 -4.656619,1.719402 -0.854384,0.790321 -0.498179,2.516583 -1.460442,3.171291 -0.5348,0.363879 -1.29928,6.04e-4 -1.937144,0.108094 -0.952742,0.160573 -1.95355,1.284833 -2.787129,0.796321 -0.994765,-0.58297 -0.09852,-2.448611 -0.79632,-3.366482 -1.016283,-1.336801 -2.740039,-2.295368 -4.413989,-2.428628 z m 0.278403,53.554207 c 0.459723,-0.0204 0.925748,0.42098 1.397452,0.54514 0.746033,0.19635 2.072729,-0.27051 2.264542,0.4767 0.383456,1.4938 -2.666991,1.7238 -3.508017,3.01654 -0.664411,1.02125 0.03219,2.95008 -1.055284,3.49946 -0.763946,0.38593 -1.674104,-0.44064 -2.419295,-0.86165 -1.11486,-0.62987 -3.193231,-1.17294 -2.97143,-2.43407 0.19004,-1.08056 2.140425,-0.56939 3.105188,-1.09183 0.740272,-0.40087 1.4367,-0.91475 2.003248,-1.53743 0.416624,-0.4579 0.405685,-1.3599 0.986849,-1.5732 0.06542,-0.024 0.131073,-0.0368 0.196747,-0.0397 z m -14.494771,4.08349 c 0.444327,0.02 1.036362,0.48199 1.517989,0.54357 1.032575,0.13203 2.38159,-0.56427 3.118409,0.17109 0.3105,0.30988 0.06608,0.87487 0.07465,1.31346 0.07363,3.76474 0.717508,7.6427 -0.199859,11.29471 -0.237619,0.94595 -0.428917,2.24638 -1.336794,2.60282 -0.549471,0.21574 -1.196658,-0.24487 -1.664966,-0.60424 -2.278039,-1.74812 -5.339141,-4.21846 -4.933463,-7.06114 0.172504,-1.20878 2.136392,-1.30853 2.854004,-2.29642 0.6462,-0.88959 1.163527,-1.98393 1.171932,-3.08342 0.0074,-0.96513 -1.617632,-1.99062 -0.987626,-2.7218 0.105651,-0.12261 0.237609,-0.16531 0.385718,-0.15863 z m 14.015734,6.7174 c 0.08354,-0.002 0.168199,0.003 0.25507,0.0171 0.728436,0.11552 0.643759,1.34129 1.101943,1.91925 0.392169,0.49469 1.097927,0.72946 1.383455,1.29246 0.356622,0.70323 0.09241,1.58307 0.281511,2.34854 0.173943,0.70411 0.426434,1.39703 0.77688,2.03202 0.398791,0.72259 1.823926,1.22879 1.485327,1.98148 -0.474725,1.05525 -2.316831,0.10341 -3.459799,0.28384 -0.95015,0.14994 -1.848252,0.6119 -2.808903,0.661 -0.847247,0.0433 -1.893791,0.2411 -2.523502,-0.32739 -0.869378,-0.78485 -0.874286,-2.25096 -0.804876,-3.42014 0.08283,-1.39531 0.655583,-2.78024 1.436336,-3.93962 0.736952,-1.09435 1.623418,-2.81888 2.876558,-2.84855 z"
       transform="translate(115.32417,-58.131313)" /><path
       id="path3280"
       style="clip-rule:evenodd;display:inline;fill:#3e2938;fill-rule:nonzero;stroke:none;stroke-width:0.779058;stroke-linecap:round;stroke-linejoin:round;stroke-opacity:0.27027;fill-opacity:1"
       d="m 186.70012,104.13777 c -1.33859,-0.0392 -2.82198,0.13249 -3.91336,0.90859 -1.04659,0.74422 -0.859,2.79078 -2.05483,3.25897 -0.78877,0.30881 -1.60942,-0.60807 -2.455,-0.65795 -1.50498,-0.0888 -3.29441,-0.28707 -4.47614,0.64908 -1.14715,0.90883 -1.53249,2.62427 -1.6073,4.08597 -0.0455,0.88924 1.12775,1.78169 0.71883,2.57265 -0.41223,0.79733 -1.78352,0.41688 -2.53482,0.90799 -1.0454,0.68335 -1.84405,1.70962 -2.57265,2.72399 -0.60524,0.84258 -0.47797,2.41876 -1.4619,2.74762 -1.8363,0.61377 -3.34399,-2.20356 -5.26353,-2.45678 -1.29793,-0.17122 -2.83826,-0.12711 -3.86784,0.68159 -0.91013,0.71489 -1.52183,2.02878 -1.3951,3.17915 0.0861,0.78149 1.82701,1.24476 1.3951,1.90171 -0.40826,0.621 -2.17303,-0.49834 -2.17303,-0.49834 0,0 -2.76685,0.0148 -4.03159,0.49834 -1.49317,0.57097 -2.3432,2.85324 -3.93761,2.73758 -0.37903,-0.0275 -0.46916,-0.66721 -0.83232,-0.77912 -1.58464,-0.48835 -3.60643,-0.25248 -4.91534,0.76553 -0.92955,0.72294 -1.3705,2.07203 -1.38624,3.2495 -0.008,0.57097 0.99722,1.15618 0.62957,1.59313 -0.73426,0.87267 -2.20993,-0.66369 -3.34999,-0.6946 -1.62658,-0.044 -3.35419,0.0382 -4.82668,0.73066 -1.09962,0.51709 -2.22271,1.31877 -2.71926,2.42781 -0.16728,0.37367 0.28043,0.93012 0,1.2284 -0.89747,0.95463 -2.70508,-0.2398 -3.9234,0.24237 -1.24629,0.49324 -3.05641,1.2258 -3.09582,2.56556 -0.0197,0.66857 0.88093,1.04715 1.46722,1.36908 1.67583,0.92022 3.64724,1.27366 5.552,1.43824 0.91585,0.0792 2.30372,-1.02775 2.74882,-0.22344 0.36297,0.65591 -1.44524,1.0595 -1.34485,1.80239 0.12167,0.90043 1.35377,1.23853 2.15116,1.67412 0.66602,0.36381 1.39958,0.62871 2.14763,0.75666 1.6566,0.28334 3.36187,0.0483 5.04184,0 0.86469,-0.0248 1.78333,-0.45885 2.59097,-0.14897 0.72811,0.27938 1.02003,1.19756 1.64634,1.66229 0.4583,0.34005 1.37032,0.24794 1.51332,0.8004 0.21483,0.82996 -1.54344,1.30874 -1.40454,2.15472 0.13822,0.84185 2.03016,0.73197 2.00987,1.58485 -0.0206,0.86762 -1.47958,0.92616 -2.11865,1.51332 -0.62376,0.57308 -1.63273,1.08848 -1.64634,1.93541 -0.0167,1.04245 2.23315,1.44302 1.949,2.44614 -0.2046,0.72227 -1.51038,0.32384 -2.11864,0.76376 -0.5409,0.39119 -1.31893,0.91434 -1.23491,1.57657 0.12088,0.95276 2.38863,0.79779 2.28654,1.75273 -0.10055,0.94014 -1.72555,0.77552 -2.56496,1.21067 -1.54426,0.80052 -3.75201,1.02195 -4.53997,2.57265 -0.48307,0.95066 0.91727,2.26449 0.3671,3.17797 -0.72988,1.21184 -2.80281,0.71912 -3.95416,1.54111 -0.89091,0.63607 -2.12584,1.41178 -2.1216,2.50644 0.005,1.11463 1.2168,1.97428 2.17954,2.536 1.96142,1.14442 4.41733,1.47963 6.68285,1.32417 1.69747,-0.11649 3.34817,-2.51317 4.82433,-1.66703 0.56946,0.32642 -0.0327,1.42581 0.38602,1.93126 0.85847,1.03628 2.40034,1.41584 3.7425,1.51333 2.12326,0.15421 4.37121,-0.43141 6.20463,-1.51333 0.75328,-0.44452 0.92692,-1.72287 1.77637,-1.93126 0.75406,-0.18499 1.4217,0.68773 2.19139,0.78977 1.64477,0.21804 3.48848,0.35573 4.96085,-0.40907 1.3968,-0.72555 1.5194,-3.16333 3.02368,-3.62666 1.22138,-0.37619 2.41145,0.96399 3.68637,1.05282 2.4478,0.17056 4.83818,-1.11842 7.28998,-1.0209 1.42652,0.0567 2.7761,0.67613 4.18113,0.92928 2.087,0.37602 4.49181,-0.23165 6.30157,0.8737 1.46726,0.89617 2.09626,2.73735 2.96339,4.22195 1.34795,2.30775 1.57961,5.32993 3.45286,7.23616 1.29677,1.31962 3.5486,1.28934 4.96679,2.47748 2.52925,2.11892 5.07698,4.75198 5.90196,7.94672 1.13787,4.40654 -0.75905,9.10518 -1.81599,13.53183 -1.26725,5.3074 -8.656,11.08828 -5.38768,15.45777 2.3844,3.18775 8.33301,1.12366 11.92866,-0.58464 2.2686,-1.07781 4.15289,-3.25116 5.03949,-5.60107 0.35884,-0.95107 -0.007,-2.03294 -0.0336,-3.04911 -0.10638,-4.11712 -0.0422,-8.2525 -0.5007,-12.34541 -0.35692,-3.18649 -1.53539,-6.25997 -1.74622,-9.45945 -0.14092,-2.13851 -0.0874,-4.31838 0.32748,-6.42098 0.34767,-1.76196 1.27966,-3.36017 1.78999,-5.08206 1.19087,-4.01827 2.29038,-8.08276 2.95925,-12.22008 0.6802,-4.20769 0.90978,-8.48299 1.05932,-12.74266 0.0582,-1.65983 0.5339,-3.43259 -0.0638,-4.98214 -0.21937,-0.5687 -1.15651,-0.76374 -1.21065,-1.37087 -0.17274,-1.9364 1.36915,-3.9691 3.02664,-4.98509 0.62189,-0.38121 2.18248,-0.16316 2.18248,-0.16316 v -33.44444 c 0,0 -3.20313,-1.66689 -4.94254,-1.67412 -1.70912,-0.007 -3.18903,1.91434 -4.86981,1.60436 -1.45724,-0.26877 -2.01591,-2.42548 -3.44814,-2.80557 -1.78941,-0.47487 -3.85601,0.0178 -5.4793,0.908 -1.07013,0.58684 -1.22966,2.63305 -2.44674,2.72398 -0.39128,0.0293 -0.57348,-0.54446 -0.90799,-0.74956 -1.40685,-0.86269 -2.92429,-1.63823 -4.53997,-1.97442 -1.28406,-0.26718 -2.88758,0.7898 -3.93464,0 -1.17273,-0.88459 -0.17639,-3.19419 -1.21067,-4.2373 -1.19013,-1.20034 -3.17431,-1.38512 -4.8639,-1.43471 z m -0.92988,50.87901 c 1.23618,-0.0175 1.2885,2.45734 2.26823,3.35295 0.4576,0.4183 1.48166,0.33433 1.60316,0.94229 0.19755,0.98859 -1.82695,1.40847 -1.81836,2.41658 0.0103,1.21031 1.30821,2.08235 2.23276,2.8635 1.13672,0.96038 3.8354,0.63351 3.92932,2.11865 0.071,1.12271 -1.73204,1.47444 -2.74526,1.96319 -1.12737,0.54377 -2.37522,0.82968 -3.6107,1.03034 -2.07135,0.33645 -5.28371,2.1186 -6.28917,0.27666 -0.90008,-1.64891 3.10456,-2.72878 3.25365,-4.60144 0.0451,-0.5669 -0.50182,-1.02062 -0.75251,-1.53106 -0.25069,-0.51044 -0.3849,-1.09726 -0.75194,-1.53165 -0.72222,-0.85477 -2.78276,-0.84452 -2.72398,-1.962 0.0854,-1.62453 3.1915,-1.17525 4.23731,-2.42132 0.66192,-0.78868 0.0239,-2.76559 1.04395,-2.90723 0.0424,-0.006 0.0836,-0.009 0.12354,-0.009 z m 28.96302,1.00907 c 0.29622,0.0103 0.56401,0.099 0.7868,0.321 1.05237,1.04897 -0.0851,2.9818 -0.34818,4.4442 -0.29235,1.62516 -0.48778,3.36097 -1.35846,4.76402 -0.57091,0.92003 -1.33081,2.03801 -2.40357,2.18486 -1.1359,0.15547 -2.22925,-0.76879 -3.07335,-1.54466 -1.27576,-1.17266 -2.04629,-2.83398 -2.71687,-4.43179 -0.59601,-1.42007 -2.12692,-3.31761 -1.11965,-4.48263 0.3451,-0.39917 1.05648,0.25655 1.57483,0.15783 0.89703,-0.17084 1.53429,-1.10523 2.4349,-1.25617 1.07898,-0.18084 2.15482,0.43744 3.24832,0.47173 0.9432,0.0295 2.08658,-0.65773 2.97523,-0.62839 z m -11.72533,7.41824 c 0.60903,-0.002 0.96572,0.74428 1.42171,1.14801 1.12842,0.99904 2.27271,1.99661 3.24539,3.14783 0.78021,0.9234 1.67316,1.84114 2.05478,2.98822 0.42159,1.26712 0.21097,2.66876 0.16021,4.00321 -0.0792,2.08069 0.37113,4.43304 -0.72295,6.20463 -1.09474,1.77264 -3.15017,3.26014 -5.2269,3.42685 -1.47479,0.11837 -2.79547,-1.03096 -4.05286,-1.81067 -1.50089,-0.93069 -2.94584,-2.02378 -4.08597,-3.37246 -1.33606,-1.58042 -2.82877,-3.32717 -3.09996,-5.37881 -0.16419,-1.24216 0.52464,-2.45988 0.96593,-3.63256 0.46199,-1.22774 0.68344,-2.75863 1.74683,-3.52676 1.22071,-0.88178 3.09463,-0.0247 4.47317,-0.63075 1.23288,-0.542 1.77394,-2.56062 3.12062,-2.56674 z"
       transform="translate(115.32417,-58.131313)" /><path
       style="clip-rule:evenodd;display:inline;fill:#3e2938;fill-opacity:1;fill-rule:nonzero;stroke:none;stroke-width:1.52553;stroke-linecap:round;stroke-linejoin:round;stroke-opacity:0.27027"
       d="m -57.2532,190.32197 c -0.04296,0.13233 -0.120049,0.26448 -0.194779,0.38184 -0.04925,0.0773 -0.10968,0.15643 -0.191894,0.19696 -0.106754,0.0526 -0.235904,0.0507 -0.354599,0.0419 -0.265632,-0.0197 -0.51532,-0.13533 -0.77102,-0.20994 -0.295617,-0.0863 -0.577487,-0.32045 -0.882027,-0.27478 -0.109501,0.0164 -0.19651,0.1086 -0.274208,0.18749 -0.285795,0.29017 -0.48518,0.6585 -0.674227,1.01899 -0.279633,0.53322 -0.549397,1.10624 -0.590853,1.70692 -0.03013,0.43598 0.108353,0.87429 0.254584,1.28612 0.3681,1.03679 1.057337,1.93045 1.544288,2.91699 0.677731,1.37308 1.449086,2.71682 1.915432,4.17531 0.325133,1.01685 0.457872,2.08787 0.601191,3.14577 0.159201,1.17515 0.04908,2.38417 0.28598,3.54616 0.168608,0.82705 0.41631,1.6508 0.800743,2.40223 0.267503,0.52287 0.597238,1.03232 1.029528,1.42989 0.736424,0.6773 1.717364,1.02707 2.573822,1.5443 0.974025,0.58823 1.918865,1.22674 2.916991,1.77306 0.912493,0.49946 1.85192,0.95046 2.802602,1.37271 0.562986,0.25006 1.114243,0.554 1.715876,0.68636 0.708539,0.15588 1.448213,0.0953 2.173446,0.11437 0.647999,0.0171 1.097648,0.0213 1.744614,0.0616 0.460237,0.0288 0.913958,-0.0139 1.141883,0.38702 0.164581,0.28944 -0.113154,0.33777 0.03054,0.63815 0.187564,0.39222 0.910303,0.0825 1.258317,0.34319 0.465911,0.34884 0.736281,0.9332 0.915136,1.48709 0.240848,0.74584 0.280337,1.56884 0.171587,2.34503 -0.08453,0.6033 -0.257699,1.23303 -0.629156,1.71588 -0.28381,0.36889 -0.760814,0.53641 -1.143918,0.80074 -0.474429,0.32732 -0.886121,0.7812 -1.429904,0.97232 -0.68562,0.24099 -1.447595,0.2074 -2.173445,0.17159 -4.101274,-0.2023 -8.052009,-1.65601 -12.125542,-2.17344 -3.015774,-0.38307 -6.063239,-0.4514 -9.094153,-0.68635 -2.737336,-0.21219 -8.210687,-0.65324 -8.210687,-0.65324 h -2.3e-5 c 0,0 0.07128,-6.41948 0.444517,-9.60163 0.333796,-2.84587 0.92752,-5.66059 1.600271,-8.44589 0.565814,-2.34253 1.267701,-4.65334 2.044795,-6.93452 0.502215,-1.47424 1.34366,-2.94322 2.02723,-4.4094 0.55109,-1.18202 1.360859,-2.27072 1.672152,-3.5372 0.07601,-0.30925 0.08755,-0.63991 0.03862,-0.95458 -0.08616,-0.55414 -0.388184,-1.05231 -0.575209,-1.581 -0.198726,-0.56177 -0.505671,-1.10109 -0.58111,-1.69056 -0.105081,-0.82105 0.108199,-1.67247 0.381695,-2.45373 0.242085,-0.69153 0.587894,-1.37537 1.09054,-1.90846 0.342389,-0.36312 0.921948,-0.44543 1.254133,-0.81791 0.243453,-0.27299 0.276869,-0.68475 0.490745,-0.98148 0.210414,-0.29194 0.465391,-0.56164 0.763383,-0.76339 0.22925,-0.15521 0.488368,-0.29536 0.763383,-0.32716 0.311683,-0.0361 0.642379,0.0315 0.926963,0.16358 0.257507,0.11964 0.482203,0.31948 0.654327,0.54527 0.133146,0.17466 0.185372,0.39827 0.272638,0.59981 0.132774,0.30664 0.183097,0.65822 0.381688,0.92695 0.254985,0.34506 0.69469,0.51037 0.993836,0.81791 0.305017,0.31359 0.607611,0.64592 0.805571,1.03603 0.23952,0.47197 0.382974,1.00016 0.436217,1.52676 0.07151,0.70735 -0.214467,1.41744 -0.163582,2.12657 0.03051,0.42521 0.188181,0.83159 0.279149,1.24809 0.07819,0.35798 0.203568,0.65269 -0.02315,0.97854 -0.135341,0.19453 -0.544945,0.0496 -0.544945,0.0496 0,0 -0.05995,0.19563 -0.09135,0.29299 -0.04713,0.14614 -0.0045,0.34367 -0.145626,0.43702 0.06218,0.21374 -0.255323,0.56654 -0.33294,0.80559 z"
       id="path13293"
       transform="translate(115.32417,-58.131313)"
       sodipodi:nodetypes="csaaaassccssssssssssccsccssssscssccsssaaaassssssccssssssasscaccc" /></g></svg>
